Coordinates
version=1
nRows=26
nColumns=24
inDegrees=yes

Units are S.I. units (second, meters, Newtons, ...)
Angles are in degrees.

endheader
time	pelvis_tilt	pelvis_list	pelvis_rotation	pelvis_tx	pelvis_ty	pelvis_tz	hip_flexion_r	hip_adduction_r	hip_rotation_r	knee_angle_r	ankle_angle_r	subtalar_angle_r	mtp_angle_r	hip_flexion_l	hip_adduction_l	hip_rotation_l	knee_angle_l	ankle_angle_l	subtalar_angle_l	mtp_angle_l	lumbar_extension	lumbar_bending	lumbar_rotation
      1.51500000	     22.66566011	     -7.11732784	      6.16934031	     -0.21540984	      0.90803390	     -0.04017655	     -1.05881327	      8.37527252	     -2.22916858	    -26.69404333	     10.22263044	    -18.99670030	     18.47999596	    -32.36598693	     -5.22075062	     29.53540368	     -0.81707155	      2.58109536	    -39.63671768	     19.38417752	    -32.91494919	      7.77004677	     -2.51669168
      1.52000000	     22.59762888	     -7.24148821	      5.66978423	     -0.20916002	      0.90708387	     -0.03912305	     -1.07607340	      8.67014952	     -0.88742417	    -24.61473021	      9.52339606	    -20.19289153	     18.76648626	    -32.81755266	     -5.08726339	     28.53491870	     -0.85619345	      3.37865375	    -38.73316532	     19.41915279	    -32.85323441	      7.63486377	     -2.04120845
      1.52500000	     22.50082997	     -7.36849528	      5.17599355	     -0.20288725	      0.90606260	     -0.03805523	     -1.11077676	      8.94970598	      0.48147852	    -22.46598442	      8.72302929	    -21.36207252	     19.13992210	    -33.23646254	     -4.95576473	     27.53344553	     -0.89734613	      4.19733483	    -37.73286533	     19.43123808	    -32.75705172	      7.50345837	     -1.56292536
      1.53000000	     22.38182253	     -7.48816504	      4.68275587	     -0.19649494	      0.90496695	     -0.03699012	     -1.16344125	      9.18609776	      1.80766564	    -20.27915871	      7.85820713	    -22.41252856	     21.14582295	    -33.58637958	     -4.79115625	     26.30186613	     -1.08209501	      5.48121561	    -35.95191563	     18.89112895	    -32.62068346	      7.37083449	     -1.12928223
      1.53500000	     22.25820220	     -7.58257171	      4.23046956	     -0.19021501	      0.90383102	     -0.03599501	     -1.28515386	      9.39701393	      3.27364904	    -17.95448557	      6.81843571	    -23.80902718	     21.29169228	    -33.99653973	     -4.64512062	     25.52773802	     -1.05107414	      5.90242184	    -35.56776866	     18.73757446	    -32.48677947	      7.23774952	     -0.69276612
      1.54000000	     22.12810468	     -7.66132285	      3.77144107	     -0.18386806	      0.90262745	     -0.03498288	     -1.44308348	      9.55973821	      4.76480765	    -15.59167473	      5.74646805	    -25.12032088	     21.76966875	    -34.35134105	     -4.45617645	     24.52552690	     -1.15824067	      6.71795030	    -34.53162297	     18.67084773	    -32.33835357	      7.08760825	     -0.29947875
      1.54500000	     21.98029994	     -7.68311949	      3.31254426	     -0.17752293	      0.90136177	     -0.03398464	     -1.61928947	      9.62614031	      6.28619188	    -13.20345358	      4.64106645	    -26.35739604	     22.41103595	    -34.68894443	     -4.21468390	     23.62518197	     -1.25366617	      7.46416765	    -33.47513549	     18.56798380	    -32.16827808	      6.88606576	      0.10311669
      1.55000000	     21.82177079	     -7.67754779	      2.86586366	     -0.17114859	      0.90001906	     -0.03302937	     -1.81560485	      9.62711286	      7.81700675	    -10.80164360	      3.46727120	    -27.56614934	     23.22056970	    -35.00520288	     -3.94341355	     22.72997796	     -1.36604759	      8.20718678	    -32.44916010	     18.42435749	    -31.98017921	      6.67117487	      0.45711595
      1.55500000	     21.65169029	     -7.63538009	      2.43261282	     -0.16476713	      0.89860222	     -0.03212618	     -2.01228978	      9.55064928	      9.32335913	     -8.42619907	      2.23525030	    -28.74015364	     24.22694075	    -35.28378569	     -3.63181007	     21.85912474	     -1.52796068	      8.95694155	    -31.44741684	     18.22784346	    -31.77525848	      6.43426084	      0.79105789
      1.56000000	     21.46240658	     -7.54463665	      2.00445830	     -0.15836222	      0.89711432	     -0.03124998	     -2.18117008	      9.38876245	     10.77599572	     -6.13124520	      1.01876092	    -29.79560662	     25.42234146	    -35.51758841	     -3.26566156	     20.98806099	     -1.73431612	      9.67940378	    -30.49262669	     17.97079881	    -31.54184672	      6.15758793	      1.07183468
      1.56500000	     21.24252766	     -7.42327553	      1.58105518	     -0.15194549	      0.89554875	     -0.03039549	     -2.28389916	      9.16663328	     12.14296565	     -3.97284012	     -0.08136482	    -30.55836849	     26.62938563	    -35.73430059	     -2.88346854	     20.22940391	     -1.88934984	     10.33247214	    -29.56773779	     17.70898121	    -31.26920840	      5.85844208	      1.36979447
      1.57000000	     21.03283118	     -7.27719437	      1.17803770	     -0.14553549	      0.89395702	     -0.02962226	     -2.36041489	      8.89730375	     13.38638506	     -1.96237264	     -1.03515011	    -31.00016397	     27.70059990	    -35.94272866	     -2.47768157	     19.49864123	     -2.06927447	     10.93538381	    -28.73836544	     17.48008770	    -31.00420209	      5.55702484	      1.62881570
      1.57500000	     20.82040112	     -7.09699952	      0.81252167	     -0.13913193	      0.89236596	     -0.02893199	     -2.39025856	      8.58406501	     14.46232834	     -0.12059949	     -1.82016599	    -31.17051080	     28.64540372	    -36.10415160	     -2.04682648	     18.79108951	     -2.32521627	     11.47390620	    -27.97157696	     17.28142823	    -30.73142921	      5.24510300	      1.83503187
      1.58000000	     20.60389348	     -6.91857680	      0.46510122	     -0.13270656	      0.89075063	     -0.02827739	     -2.36954302	      8.27338998	     15.43450328	      1.53284045	     -2.46525101	    -31.05719470	     29.36676318	    -36.27694832	     -1.63506711	     18.15238455	     -2.53363132	     11.99818644	    -27.24639650	     17.15628944	    -30.44637312	      4.95028898	      2.03241695
      1.58500000	     20.41071869	     -6.72713779	      0.16424314	     -0.12628766	      0.88918496	     -0.02769564	     -2.33551903	      7.95943260	     16.24067891	      3.01181654	     -2.97882681	    -30.77956300	     29.95952599	    -36.43579976	     -1.22802295	     17.50598058	     -2.80712795	     12.46519534	    -26.52375769	     17.07578946	    -30.18384519	      4.66607510	      2.17302071
      1.59000000	     20.20493884	     -6.55260384	     -0.11996679	     -0.11985857	      0.88761944	     -0.02716421	     -2.24323768	      7.67610124	     16.96298240	      4.28875960	     -3.36752821	    -30.33240506	     30.42565292	    -36.58891611	     -0.85019462	     16.92034366	     -3.05346154	     12.92323674	    -25.83910720	     17.04372357	    -29.90414046	      4.41657915	      2.32850915
      1.59500000	     20.02922547	     -6.38005134	     -0.35017836	     -0.11343189	      0.88612529	     -0.02669231	     -2.15045516	      7.41716201	     17.53349467	      5.38294104	     -3.65942464	    -29.79981698	     30.81022859	    -36.74366834	     -0.50243806	     16.35131397	     -3.35092537	     13.34592836	    -25.13515115	     17.04644886	    -29.65321029	      4.19045171	      2.45430124
      1.60000000	     19.89197509	     -6.19470411	     -0.52126992	     -0.10704560	      0.88471766	     -0.02635452	     -2.07606802	      7.15803576	     18.00005819	      6.31637742	     -3.95186741	    -29.27872221	     30.89290008	    -36.96612144	     -0.17303441	     16.02319078	     -3.55107321	     13.43737198	    -25.01711605	     17.05903761	    -29.44516797	      3.98526607	      2.51116587
      1.60500000	     19.71986025	     -6.08763813	     -0.69290456	     -0.10053191	      0.88330620	     -0.02596384	     -1.91315232	      7.02043936	     18.37935183	      6.98321414	     -3.97321135	    -28.57161826	     31.26970830	    -37.06612139	      0.07785627	     15.26004010	     -3.98587527	     14.12865220	    -23.69724783	     17.24036428	    -29.18831660	      3.86261710	      2.60134221
      1.61000000	     19.60063155	     -5.93407497	     -0.79247280	     -0.09413126	      0.88201929	     -0.02573254	     -1.80289404	      6.84074672	     18.70295151	      7.54005570	     -4.18699414	    -28.14266374	     31.34020679	    -37.27474907	      0.33602279	     14.98275093	     -4.24294857	     14.19751605	    -23.55519013	     17.26262922	    -28.99681354	      3.72586765	      2.63834007
      1.61500000	     19.46302667	     -5.86929372	     -0.87200321	     -0.08760473	      0.88076016	     -0.02549571	     -1.61694433	      6.79953631	     18.89392665	      7.80292486	     -4.03328059	    -27.41456198	     31.65007962	    -37.37086388	      0.49558813	     14.28214436	     -4.74742815	     14.80260716	    -22.30419102	     17.49753370	    -28.77420057	      3.69419767	      2.69235481
      1.62000000	     19.37967085	     -5.75882189	     -0.86771825	     -0.08113871	      0.87963563	     -0.02543619	     -1.51952841	      6.70537094	     19.07463767	      8.02989326	     -4.20280821	    -27.11999803	     31.69637012	    -37.59933649	      0.65157965	     14.08690647	     -5.03223708	     14.80724921	    -22.16329963	     17.52493499	    -28.61426485	      3.65478490	      2.65714473
      1.62500000	     19.26822644	     -5.72524620	     -0.89099352	     -0.07461028	      0.87852738	     -0.02524844	     -1.29518436	      6.74987387	     19.18329221	      7.87902575	     -3.97888887	    -26.46364075	     31.96374447	    -37.72187571	      0.73317270	     13.44630175	     -5.51662517	     15.34394828	    -20.92528977	     17.82258648	    -28.42119970	      3.67686340	      2.64858756
      1.63000000	     19.26211748	     -5.70539729	     -0.77455025	     -0.06805157	      0.87764575	     -0.02532983	     -1.23217528	      6.80740096	     19.11611487	      7.71002750	     -3.97661709	    -25.98571237	     32.17337578	    -37.95496663	      0.73366305	     13.07804313	     -5.98486104	     15.60201038	    -20.11764598	     18.06255130	    -28.33524698	      3.77937737	      2.55883290
      1.63500000	     19.21087919	     -5.68264029	     -0.68122470	     -0.06151032	      0.87677003	     -0.02535669	     -1.07831117	      6.88420205	     19.12905851	      7.33366580	     -3.93267515	    -25.64136409	     32.36429324	    -38.12871386	      0.74213215	     12.72849800	     -6.46270661	     15.77354391	    -19.43340148	     18.31829594	    -28.20487461	      3.86956055	      2.48560994
      1.64000000	     19.22924032	     -5.69213905	     -0.50592055	     -0.05491223	      0.87606185	     -0.02549068	     -1.00927267	      7.00997016	     19.02522449	      6.85699873	     -3.96307422	    -25.34729129	     32.56002744	    -38.36343476	      0.66879402	     12.40164283	     -6.96279476	     15.93077684	    -18.66384155	     18.64354159	    -28.14121638	      4.02583343	      2.34974020
